<svg width="24" height="24" viewBox="0 0 24 24" fill="none" xmlns="http://www.w3.org/2000/svg">
    <path d="M10.842 17.684C12.4208 17.684 13.8721 17.1409 15.0301 16.2403L18.1852 19.3953C18.5191 19.7293 19.0605 19.7293 19.3945 19.3953V19.3953C19.7284 19.0614 19.7284 18.52 19.3945 18.186L16.2395 15.031C17.1409 13.8721 17.684 12.4208 17.684 10.842C17.684 7.06949 14.6145 4 10.842 4C7.06949 4 4 7.06949 4 10.842C4 14.6145 7.06949 17.684 10.842 17.684ZM10.842 5.7105C13.672 5.7105 15.9735 8.01197 15.9735 10.842C15.9735 13.672 13.672 15.9735 10.842 15.9735C8.01197 15.9735 5.7105 13.672 5.7105 10.842C5.7105 8.01197 8.01197 5.7105 10.842 5.7105Z" fill="#0E4195"/>
</svg>
