<svg width="24" height="24" viewBox="0 0 24 24" fill="none" xmlns="http://www.w3.org/2000/svg">
<path fill-rule="evenodd" clip-rule="evenodd" d="M5.80488 7.10371C5.586 6.93535 5.27208 6.97629 5.10371 7.19517C4.93535 7.41405 4.97629 7.72797 5.19517 7.89634L6.88431 9.19568C5.71261 10.4442 5.00002 12.1302 5.00002 14H6.00002C6.00002 12.3811 6.64986 10.9065 7.70158 9.82435L10.0877 11.6598C9.41711 12.2025 9.00002 13.0371 9.00002 14C9.00002 15.7 10.3 17 12 17C13.2524 17 14.2877 16.2945 14.7461 15.2432L18.1952 17.8963C18.414 18.0647 18.728 18.0238 18.8963 17.8049C19.0647 17.586 19.0238 17.2721 18.8049 17.1037L5.80488 7.10371ZM13.908 14.5985L10.9333 12.3103C10.3735 12.6658 10 13.2914 10 14C10 15.1 10.9 16 12 16C12.8918 16 13.6521 15.4085 13.908 14.5985ZM12.1762 11.0047L14.8625 13.0711C14.5021 11.9013 13.4681 11.0739 12.1762 11.0047ZM8.31168 8.03202L9.18665 8.70508C10.027 8.2554 10.9851 8.00002 12 8.00002C15.3 8.00002 18 10.7 18 14H19C19 10.1 15.9 7.00002 12 7.00002C10.641 7.00002 9.3791 7.37646 8.31168 8.03202Z" fill="#C2C8C2"/>
</svg>
