<?xml version="1.0" standalone="no"?>
<!DOCTYPE svg PUBLIC "-//W3C//DTD SVG 20010904//EN"
 "http://www.w3.org/TR/2001/REC-SVG-20010904/DTD/svg10.dtd">
<svg version="1.0" xmlns="http://www.w3.org/2000/svg"
 width="700.000000pt" height="700.000000pt" viewBox="0 0 700.000000 700.000000"
 preserveAspectRatio="xMidYMid meet">
<metadata>
Created by potrace 1.14, written by Peter Selinger 2001-2017
</metadata>
<g transform="translate(0.000000,700.000000) scale(0.100000,-0.100000)"
fill="#000000" stroke="none">
<path d="M197 6758 c-9 -5 -12 -769 -12 -3247 0 -1782 3 -3242 6 -3246 4 -3
1469 -7 3258 -8 l3251 -2 0 3253 c0 1788 -3 3252 -7 3253 -45 5 -6488 2 -6496
-3z m6069 -3255 l1 -2813 -2818 0 -2819 0 0 2814 0 2814 2818 -1 2817 -2 1
-2812z"/>
<path d="M4565 5723 c-149 -26 -231 -51 -330 -101 -243 -120 -429 -333 -515
-590 -31 -94 -37 -120 -49 -231 -31 -291 77 -587 294 -807 273 -277 655 -372
1037 -259 86 25 226 98 306 158 57 43 188 185 230 250 52 79 106 197 128 280
l12 47 -222 0 c-186 0 -223 -2 -223 -14 0 -25 -66 -125 -118 -180 -98 -104
-223 -163 -366 -173 -263 -19 -506 136 -598 382 -32 84 -33 88 -37 196 -10
255 137 477 379 573 97 39 196 49 307 33 154 -22 304 -125 394 -271 l45 -71
213 1 c117 1 216 2 220 3 6 1 -15 80 -31 116 -51 111 -72 150 -115 213 -193
282 -509 451 -841 450 -55 -1 -109 -3 -120 -5z"/>
<path d="M1290 3505 l0 -2153 214 0 c155 0 216 3 218 11 2 7 4 740 3 1631 l0
1618 214 -433 c118 -239 216 -436 217 -437 2 -3 180 -5 240 -3 22 1 13 -16
310 586 l143 290 1 -1632 0 -1631 207 0 c114 0 212 3 218 8 7 6 10 712 9 2152
l0 2143 -191 2 -191 1 -65 -136 c-174 -364 -345 -722 -412 -867 -18 -38 -56
-117 -84 -174 l-50 -105 -19 45 c-11 24 -41 89 -67 144 -26 55 -127 271 -225
480 -98 209 -203 432 -233 497 l-55 116 -201 0 -201 0 0 -2153z"/>
<path d="M4638 3345 c-2 -1 -31 -5 -65 -8 -137 -13 -325 -79 -438 -154 -283
-188 -458 -498 -468 -828 -5 -165 28 -316 103 -470 142 -293 399 -494 717
-563 115 -25 310 -24 423 3 147 34 292 102 405 189 117 91 244 254 303 391 27
63 64 173 59 176 -1 1 -98 2 -215 3 -197 2 -235 -1 -233 -18 4 -22 -61 -119
-117 -177 -203 -206 -509 -232 -749 -63 -400 283 -307 893 160 1055 92 32 259
35 347 6 141 -47 261 -143 330 -265 l35 -61 216 -1 c119 0 218 3 222 6 16 17
-85 240 -156 343 -51 75 -196 215 -275 266 -108 69 -251 130 -348 149 -63 12
-249 27 -256 21z"/>
</g>
</svg>
