<svg width="24" height="24" viewBox="0 0 24 24" fill="none" xmlns="http://www.w3.org/2000/svg">
<path opacity="0.7" fill-rule="evenodd" clip-rule="evenodd" d="M5.0738 11.6537C5.08842 11.607 6.6856 7 12 7C17.3144 7 18.9116 11.607 18.9269 11.6537L19 11.8737L18.9262 12.0937C18.9116 12.1403 17.3144 16.7474 12 16.7474C6.6856 16.7474 5.08842 12.1403 5.07311 12.0937L5 11.8737L5.0738 11.6537ZM6.4816 11.8737C6.83111 12.6771 8.27442 15.3549 12 15.3549C15.7235 15.3549 17.1675 12.6799 17.5184 11.8737C17.1689 11.0702 15.7256 8.39248 12 8.39248C8.27651 8.39248 6.8325 11.0674 6.4816 11.8737ZM12.0001 10.4812C12.0001 11.2436 12.6302 11.8737 13.3926 11.8737C13.6391 11.8737 13.8681 11.802 14.0701 11.6871C14.072 11.7118 14.0753 11.7361 14.0786 11.7603C14.0837 11.7976 14.0889 11.8349 14.0889 11.8737C14.0889 13.0169 13.1427 13.9624 12.0001 13.9624C10.8569 13.9624 9.91142 13.0169 9.91142 11.8737C9.91142 10.7312 10.8569 9.78496 12.0001 9.78496C12.0389 9.78496 12.0762 9.79007 12.1135 9.79518C12.1378 9.79851 12.162 9.80184 12.1867 9.80376C12.0719 10.0057 12.0001 10.2347 12.0001 10.4812Z" fill="#4F4F4F"/>
</svg>
