<svg width="24" height="24" viewBox="0 0 24 24" fill="none" xmlns="http://www.w3.org/2000/svg">
<path opacity="0.7" d="M11.9997 16.6946C12.6618 16.6946 13.2666 16.6225 13.8182 16.4979L12.5883 15.268C12.3972 15.2827 12.2033 15.2946 11.9997 15.2946C8.25404 15.2946 6.80298 12.6025 6.45159 11.7947C6.59439 11.4657 6.92338 10.8281 7.50716 10.1869L6.52859 9.20829C5.45201 10.3752 5.04392 11.5504 5.03622 11.5735C4.98793 11.717 4.98793 11.8731 5.03622 12.0166C5.05092 12.0628 6.65668 16.6946 11.9997 16.6946ZM11.9997 6.89485C10.7138 6.89485 9.65751 7.17205 8.77693 7.58154L6.1947 5L5.20492 5.98978L17.8046 18.5895L18.7944 17.5997L16.4711 15.2764C18.3009 13.9108 18.954 12.046 18.9638 12.0166C19.0121 11.8731 19.0121 11.717 18.9638 11.5735C18.9484 11.5266 17.3426 6.89485 11.9997 6.89485ZM15.48 14.2853L13.884 12.6893C14.017 12.4163 14.0996 12.116 14.0996 11.7947C14.0996 10.6461 13.1483 9.69478 11.9997 9.69478C11.6784 9.69478 11.3781 9.77738 11.1058 9.91108L9.8402 8.64551C10.4569 8.42991 11.1695 8.29482 11.9997 8.29482C15.7453 8.29482 17.1963 10.987 17.5477 11.7947C17.3363 12.2791 16.7315 13.4341 15.48 14.2853Z" fill="#4F4F4F"/>
</svg>
